<svg width="158" height="59" viewBox="0 0 158 59" fill="none" xmlns="http://www.w3.org/2000/svg">
<path d="M42.3762 39.525C42.3762 28.709 34.6962 23.4609 27.2082 23.4609C22.7282 23.4609 18.3122 25.4449 15.7522 29.2209V8.29289C15.7522 5.86089 14.2162 4.70889 12.1682 4.70889C11.4642 4.70889 10.6962 4.83689 9.92815 5.09289L0.968154 8.03689C-0.311846 8.48489 -0.311846 9.8929 0.904154 10.4049C3.52815 11.5569 5.25615 12.6449 5.25615 18.4049V45.925C5.25615 51.941 4.80815 52.965 4.23215 55.205C3.78415 56.805 4.48815 57.5089 5.51215 57.5089C5.96015 57.5089 6.47215 57.3809 6.98415 57.1249C8.52015 56.4209 10.5682 55.653 12.9362 55.653C15.3682 55.653 17.0962 57.8929 24.0722 57.8929C33.7362 57.8929 42.3762 52.709 42.3762 39.525ZM15.7522 46.053V36.837C15.7522 32.357 19.4642 29.2849 23.3042 29.2849C27.4002 29.2849 31.5602 32.741 31.5602 41.893C31.5602 51.045 27.0162 55.269 22.8562 55.269C19.1442 55.269 15.7522 52.069 15.7522 46.053Z" fill="#367227"/>
<path d="M68.0822 53.221C68.7222 56.741 70.9622 57.8929 75.9542 57.8929C77.4262 57.8929 83.2502 57.317 83.2502 54.757C83.2502 54.245 82.9302 53.797 82.3542 53.733C78.9622 53.157 78.3862 52.005 78.3862 45.989V34.8529C78.3862 25.8929 74.2902 23.3329 62.7062 23.3329C57.6502 23.3329 48.7542 25.9569 48.7542 32.2289C48.7542 35.1089 51.0582 36.581 53.5542 36.581C60.7222 36.581 56.7542 25.7649 63.9862 25.7649C67.6982 25.7649 67.8902 29.925 67.8902 36.325V37.477C61.6822 37.477 46.5782 37.925 46.5782 48.229C46.5782 55.077 51.8262 58.1489 57.3302 58.1489C61.4262 58.1489 65.7142 56.421 68.0822 53.221ZM57.5222 47.1409C57.5222 41.5729 61.8742 39.973 67.8902 40.293V47.845C67.8902 50.725 65.0102 52.645 62.3222 52.645C59.8262 52.645 57.5222 51.0449 57.5222 47.1409Z" fill="#367227"/>
<path d="M115.06 47.9729C115.06 36.069 95.2202 37.7969 95.2202 30.1169C95.2202 27.3649 97.0762 25.5089 99.8282 25.5089C102.26 25.5089 104.756 27.0449 104.756 29.6689C104.756 30.5649 104.372 31.3969 104.372 32.2929C104.372 34.7889 106.484 36.389 108.852 36.389C111.604 36.389 113.332 34.3409 113.332 31.6529C113.332 25.1889 104.82 23.2049 99.7642 23.2049C94.0042 23.2049 85.8122 25.5729 85.8122 32.6769C85.8122 43.9409 104.5 42.597 104.5 50.021C104.5 53.221 102.004 55.141 98.9322 55.141C95.9882 55.141 93.2362 53.349 93.2362 50.149C93.2362 48.933 93.6842 47.845 93.6842 46.693C93.6842 44.005 91.6362 42.213 89.0122 42.213C85.7482 42.213 83.8922 44.837 83.8922 47.9729C83.8922 55.461 93.4922 57.7649 99.3802 57.7649C105.268 57.7649 115.06 55.461 115.06 47.9729Z" fill="#367227"/>
<path d="M128 15.123C126.869 10.8228 123.491 7.02508 119.5 4.1793C108.216 -3.86777 111.476 1.169 112.5 7.04094C113.524 12.913 118 17.9869 120.5 19.0163C129 22.5163 130.453 24.4515 128 15.123ZM137.127 54.5009C137.127 53.9249 136.743 53.669 136.231 53.477C135.527 53.285 134.887 53.285 134.247 52.965C132.007 51.813 132.263 47.845 132.263 45.797V27.1089C132.263 24.8689 130.855 23.5889 128.615 23.5889C127.719 23.5889 126.823 23.7809 125.991 24.0369L117.095 26.9169C116.583 27.0449 116.135 27.4929 116.135 28.0689C116.135 28.7089 116.519 29.0289 116.967 29.2849C117.671 29.6689 118.311 29.8609 118.951 30.3089C121.127 31.8449 121.319 34.789 121.319 37.285V50.405C121.319 56.421 124.263 57.7009 129.831 57.7009C131.687 57.7009 137.127 56.9969 137.127 54.5009Z" fill="#367227"/>
<path d="M157.564 54.565C157.564 53.925 157.18 53.6689 156.668 53.541C155.964 53.3489 155.324 53.285 154.684 52.965C152.444 51.877 152.7 47.909 152.7 45.797V7.97289C152.7 5.60489 150.972 4.38889 148.732 4.38889C146.172 4.38889 140.092 6.88489 137.532 7.71689C136.956 7.90889 136.508 8.35689 136.508 8.93289C136.508 9.50889 136.956 9.82889 137.404 10.1489C138.108 10.5329 138.812 10.7249 139.516 11.2369C141.564 12.7729 141.756 15.7169 141.756 18.0849V50.405C141.756 56.485 144.7 57.7009 150.268 57.7009C152.124 57.7009 157.564 56.997 157.564 54.565Z" fill="#367227"/>
</svg>
